 CFDRC IGES file: /home/zjw/research/proposals/2010/high-order-workshop/S      1
3-element-airfoil.iges                                                  S      2
1H,1H;,18H CFD-GEOM IGES FILE,/home/zjw/research/proposals/2010/high-ordG      1
er-workshop/3-element-airfoil.iges,                                     G      2
CFDRC:CFD-GEOM,6.0.0,32,38,7,38,7,CFD-GEOM1.0,2,2HMM,,,date time,       G      3
1e-06,,,,8,0,;                                                          G      4
     314       1       0       0       0       0       0       000000000D      1
     314       0       0       1       0       0       0   COLOR       0D      2
     116       2       0       0       0       0       0       000000000D      3
     116       0      -1       1       0       0       0   POINT       1D      4
     116       3       0       0       0       0       0       000000000D      5
     116       0      -1       1       0       0       0   POINT       2D      6
     116       4       0       0       0       0       0       000000000D      7
     116       0      -1       1       0       0       0   POINT       3D      8
     116       5       0       0       0       0       0       000000000D      9
     116       0      -1       1       0       0       0   POINT       4D     10
     116       6       0       0       0       0       0       000000000D     11
     116       0      -1       1       0       0       0   POINT       5D     12
     116       7       0       0       0       0       0       000000000D     13
     116       0      -1       1       0       0       0   POINT       6D     14
     116       8       0       0       0       0       0       000000000D     15
     116       0      -1       1       0       0       0   POINT       7D     16
     116       9       0       0       0       0       0       000000000D     17
     116       0      -1       1       0       0       0   POINT       8D     18
     116      10       0       0       0       0       0       000000000D     19
     116       0      -1       1       0       0       0   POINT       9D     20
     116      11       0       0       0       0       0       000000000D     21
     116       0      -1       1       0       0       0   POINT      10D     22
     116      12       0       0       0       0       0       000000000D     23
     116       0      -1       1       0       0       0   POINT      11D     24
     116      13       0       0       0       0       0       000000000D     25
     116       0      -1       1       0       0       0   POINT      12D     26
     116      14       0       0       0       0       0       000000000D     27
     116       0      -1       1       0       0       0   POINT      13D     28
     116      15       0       0       0       0       0       000000000D     29
     116       0      -1       1       0       0       0   POINT      14D     30
     116      16       0       0       0       0       0       000000000D     31
     116       0      -1       1       0       0       0   POINT      15D     32
     116      17       0       0       0       0       0       000000000D     33
     116       0      -1       1       0       0       0   POINT      16D     34
     116      18       0       0       0       0       0       000000000D     35
     116       0      -1       1       0       0       0   POINT      17D     36
     116      19       0       0       0       0       0       000000000D     37
     116       0      -1       1       0       0       0   POINT      18D     38
     116      20       0       0       0       0       0       000000000D     39
     116       0      -1       1       0       0       0   POINT      19D     40
     116      21       0       0       0       0       0       000000000D     41
     116       0      -1       1       0       0       0   POINT      20D     42
     116      22       0       0       0       0       0       000000000D     43
     116       0      -1       1       0       0       0   POINT      21D     44
     116      23       0       0       0       0       0       000000000D     45
     116       0      -1       1       0       0       0   POINT      22D     46
     116      24       0       0       0       0       0       000000000D     47
     116       0      -1       1       0       0       0   POINT      23D     48
     116      25       0       0       0       0       0       000000000D     49
     116       0      -1       1       0       0       0   POINT      24D     50
     116      26       0       0       0       0       0       000000000D     51
     116       0      -1       1       0       0       0   POINT      25D     52
     116      27       0       0       0       0       0       000000000D     53
     116       0      -1       1       0       0       0   POINT      26D     54
     116      28       0       0       0       0       0       000000000D     55
     116       0      -1       1       0       0       0   POINT      27D     56
     116      29       0       0       0       0       0       000000000D     57
     116       0      -1       1       0       0       0   POINT      28D     58
     116      30       0       0       0       0       0       000000000D     59
     116       0      -1       1       0       0       0   POINT      29D     60
     116      31       0       0       0       0       0       000000000D     61
     116       0      -1       1       0       0       0   POINT      30D     62
     116      32       0       0       0       0       0       000000000D     63
     116       0      -1       1       0       0       0   POINT      31D     64
     116      33       0       0       0       0       0       000000000D     65
     116       0      -1       1       0       0       0   POINT      32D     66
     116      34       0       0       0       0       0       000000000D     67
     116       0      -1       1       0       0       0   POINT      33D     68
     116      35       0       0       0       0       0       000000000D     69
     116       0      -1       1       0       0       0   POINT      34D     70
     116      36       0       0       0       0       0       000000000D     71
     116       0      -1       1       0       0       0   POINT      35D     72
     116      37       0       0       0       0       0       000000000D     73
     116       0      -1       1       0       0       0   POINT      36D     74
     116      38       0       0       0       0       0       000000000D     75
     116       0      -1       1       0       0       0   POINT      37D     76
     116      39       0       0       0       0       0       000000000D     77
     116       0      -1       1       0       0       0   POINT      38D     78
     116      40       0       0       0       0       0       000000000D     79
     116       0      -1       1       0       0       0   POINT      39D     80
     116      41       0       0       0       0       0       000000000D     81
     116       0      -1       1       0       0       0   POINT      40D     82
     116      42       0       0       0       0       0       000000000D     83
     116       0      -1       1       0       0       0   POINT      41D     84
     116      43       0       0       0       0       0       000000000D     85
     116       0      -1       1       0       0       0   POINT      42D     86
     116      44       0       0       0       0       0       000000000D     87
     116       0      -1       1       0       0       0   POINT      43D     88
     116      45       0       0       0       0       0       000000000D     89
     116       0      -1       1       0       0       0   POINT      44D     90
     116      46       0       0       0       0       0       000000000D     91
     116       0      -1       1       0       0       0   POINT      45D     92
     116      47       0       0       0       0       0       000000000D     93
     116       0      -1       1       0       0       0   POINT      46D     94
     116      48       0       0       0       0       0       000000000D     95
     116       0      -1       1       0       0       0   POINT      47D     96
     116      49       0       0       0       0       0       000000000D     97
     116       0      -1       1       0       0       0   POINT      48D     98
     116      50       0       0       0       0       0       000000000D     99
     116       0      -1       1       0       0       0   POINT      49D    100
     116      51       0       0       0       0       0       000000000D    101
     116       0      -1       1       0       0       0   POINT      50D    102
     116      52       0       0       0       0       0       000000000D    103
     116       0      -1       1       0       0       0   POINT      51D    104
     116      53       0       0       0       0       0       000000000D    105
     116       0      -1       1       0       0       0   POINT      52D    106
     116      54       0       0       0       0       0       000000000D    107
     116       0      -1       1       0       0       0   POINT      53D    108
     116      55       0       0       0       0       0       000000000D    109
     116       0      -1       1       0       0       0   POINT      54D    110
     116      56       0       0       0       0       0       000000000D    111
     116       0      -1       1       0       0       0   POINT      55D    112
     116      57       0       0       0       0       0       000000000D    113
     116       0      -1       1       0       0       0   POINT      56D    114
     116      58       0       0       0       0       0       000000000D    115
     116       0      -1       1       0       0       0   POINT      57D    116
     116      59       0       0       0       0       0       000000000D    117
     116       0      -1       1       0       0       0   POINT      58D    118
     116      60       0       0       0       0       0       000000000D    119
     116       0      -1       1       0       0       0   POINT      59D    120
     116      61       0       0       0       0       0       000000000D    121
     116       0      -1       1       0       0       0   POINT      60D    122
     116      62       0       0       0       0       0       000000000D    123
     116       0      -1       1       0       0       0   POINT      61D    124
     116      63       0       0       0       0       0       000000000D    125
     116       0      -1       1       0       0       0   POINT      62D    126
     116      64       0       0       0       0       0       000000000D    127
     116       0      -1       1       0       0       0   POINT      63D    128
     116      65       0       0       0       0       0       000000000D    129
     116       0      -1       1       0       0       0   POINT      64D    130
     116      66       0       0       0       0       0       000000000D    131
     116       0      -1       1       0       0       0   POINT      65D    132
     116      67       0       0       0       0       0       000000000D    133
     116       0      -1       1       0       0       0   POINT      66D    134
     116      68       0       0       0       0       0       000000000D    135
     116       0      -1       1       0       0       0   POINT      67D    136
     116      69       0       0       0       0       0       000000000D    137
     116       0      -1       1       0       0       0   POINT      68D    138
     116      70       0       0       0       0       0       000000000D    139
     116       0      -1       1       0       0       0   POINT      69D    140
     116      71       0       0       0       0       0       000000000D    141
     116       0      -1       1       0       0       0   POINT      70D    142
     116      72       0       0       0       0       0       000000000D    143
     116       0      -1       1       0       0       0   POINT      71D    144
     116      73       0       0       0       0       0       000000000D    145
     116       0      -1       1       0       0       0   POINT      72D    146
     116      74       0       0       0       0       0       000000000D    147
     116       0      -1       1       0       0       0   POINT      73D    148
     116      75       0       0       0       0       0       000000000D    149
     116       0      -1       1       0       0       0   POINT      74D    150
     116      76       0       0       0       0       0       000000000D    151
     116       0      -1       1       0       0       0   POINT      75D    152
     116      77       0       0       0       0       0       000000000D    153
     116       0      -1       1       0       0       0   POINT      76D    154
     116      78       0       0       0       0       0       000000000D    155
     116       0      -1       1       0       0       0   POINT      77D    156
     116      79       0       0       0       0       0       000000000D    157
     116       0      -1       1       0       0       0   POINT      78D    158
     116      80       0       0       0       0       0       000000000D    159
     116       0      -1       1       0       0       0   POINT      79D    160
     116      81       0       0       0       0       0       000000000D    161
     116       0      -1       1       0       0       0   POINT      80D    162
     116      82       0       0       0       0       0       000000000D    163
     116       0      -1       1       0       0       0   POINT      81D    164
     116      83       0       0       0       0       0       000000000D    165
     116       0      -1       1       0       0       0   POINT      82D    166
     116      84       0       0       0       0       0       000000000D    167
     116       0      -1       1       0       0       0   POINT      83D    168
     116      85       0       0       0       0       0       000000000D    169
     116       0      -1       1       0       0       0   POINT      84D    170
     116      86       0       0       0       0       0       000000000D    171
     116       0      -1       1       0       0       0   POINT      85D    172
     116      87       0       0       0       0       0       000000000D    173
     116       0      -1       1       0       0       0   POINT      86D    174
     116      88       0       0       0       0       0       000000000D    175
     116       0      -1       1       0       0       0   POINT      87D    176
     116      89       0       0       0       0       0       000000000D    177
     116       0      -1       1       0       0       0   POINT      88D    178
     116      90       0       0       0       0       0       000000000D    179
     116       0      -1       1       0       0       0   POINT      89D    180
     116      91       0       0       0       0       0       000000000D    181
     116       0      -1       1       0       0       0   POINT      90D    182
     116      92       0       0       0       0       0       000000000D    183
     116       0      -1       1       0       0       0   POINT      91D    184
     116      93       0       0       0       0       0       000000000D    185
     116       0      -1       1       0       0       0   POINT      92D    186
     116      94       0       0       0       0       0       000000000D    187
     116       0      -1       1       0       0       0   POINT      93D    188
     116      95       0       0       0       0       0       000000000D    189
     116       0      -1       1       0       0       0   POINT      94D    190
     116      96       0       0       0       0       0       000000000D    191
     116       0      -1       1       0       0       0   POINT      95D    192
     116      97       0       0       0       0       0       000000000D    193
     116       0      -1       1       0       0       0   POINT      96D    194
     116      98       0       0       0       0       0       000000000D    195
     116       0      -1       1       0       0       0   POINT      97D    196
     116      99       0       0       0       0       0       000000000D    197
     116       0      -1       1       0       0       0   POINT      98D    198
     116     100       0       0       0       0       0       000000000D    199
     116       0      -1       1       0       0       0   POINT      99D    200
     116     101       0       0       0       0       0       000000000D    201
     116       0      -1       1       0       0       0   POINT     100D    202
     116     102       0       0       0       0       0       000000000D    203
     116       0      -1       1       0       0       0   POINT     101D    204
     116     103       0       0       0       0       0       000000000D    205
     116       0      -1       1       0       0       0   POINT     102D    206
     116     104       0       0       0       0       0       000000000D    207
     116       0      -1       1       0       0       0   POINT     103D    208
     116     105       0       0       0       0       0       000000000D    209
     116       0      -1       1       0       0       0   POINT     104D    210
     116     106       0       0       0       0       0       000000000D    211
     116       0      -1       1       0       0       0   POINT     105D    212
     116     107       0       0       0       0       0       000000000D    213
     116       0      -1       1       0       0       0   POINT     106D    214
     116     108       0       0       0       0       0       000000000D    215
     116       0      -1       1       0       0       0   POINT     107D    216
     116     109       0       0       0       0       0       000000000D    217
     116       0      -1       1       0       0       0   POINT     108D    218
     116     110       0       0       0       0       0       000000000D    219
     116       0      -1       1       0       0       0   POINT     109D    220
     116     111       0       0       0       0       0       000000000D    221
     116       0      -1       1       0       0       0   POINT     110D    222
     116     112       0       0       0       0       0       000000000D    223
     116       0      -1       1       0       0       0   POINT     111D    224
     116     113       0       0       0       0       0       000000000D    225
     116       0      -1       1       0       0       0   POINT     112D    226
     116     114       0       0       0       0       0       000000000D    227
     116       0      -1       1       0       0       0   POINT     113D    228
     116     115       0       0       0       0       0       000000000D    229
     116       0      -1       1       0       0       0   POINT     114D    230
     116     116       0       0       0       0       0       000000000D    231
     116       0      -1       1       0       0       0   POINT     115D    232
     116     117       0       0       0       0       0       000000000D    233
     116       0      -1       1       0       0       0   POINT     116D    234
     116     118       0       0       0       0       0       000000000D    235
     116       0      -1       1       0       0       0   POINT     117D    236
     116     119       0       0       0       0       0       000000000D    237
     116       0      -1       1       0       0       0   POINT     118D    238
     116     120       0       0       0       0       0       000000000D    239
     116       0      -1       1       0       0       0   POINT     119D    240
     116     121       0       0       0       0       0       000000000D    241
     116       0      -1       1       0       0       0   POINT     120D    242
     116     122       0       0       0       0       0       000000000D    243
     116       0      -1       1       0       0       0   POINT     121D    244
     116     123       0       0       0       0       0       000000000D    245
     116       0      -1       1       0       0       0   POINT     122D    246
     116     124       0       0       0       0       0       000000000D    247
     116       0      -1       1       0       0       0   POINT     123D    248
     116     125       0       0       0       0       0       000000000D    249
     116       0      -1       1       0       0       0   POINT     124D    250
     116     126       0       0       0       0       0       000000000D    251
     116       0      -1       1       0       0       0   POINT     125D    252
     116     127       0       0       0       0       0       000000000D    253
     116       0      -1       1       0       0       0   POINT     126D    254
     116     128       0       0       0       0       0       000000000D    255
     116       0      -1       1       0       0       0   POINT     127D    256
     116     129       0       0       0       0       0       000000000D    257
     116       0      -1       1       0       0       0   POINT     128D    258
     116     130       0       0       0       0       0       000000000D    259
     116       0      -1       1       0       0       0   POINT     129D    260
     116     131       0       0       0       0       0       000000000D    261
     116       0      -1       1       0       0       0   POINT     130D    262
     116     132       0       0       0       0       0       000000000D    263
     116       0      -1       1       0       0       0   POINT     131D    264
     116     133       0       0       0       0       0       000000000D    265
     116       0      -1       1       0       0       0   POINT     132D    266
     116     134       0       0       0       0       0       000000000D    267
     116       0      -1       1       0       0       0   POINT     133D    268
     116     135       0       0       0       0       0       000000000D    269
     116       0      -1       1       0       0       0   POINT     134D    270
     116     136       0       0       0       0       0       000000000D    271
     116       0      -1       1       0       0       0   POINT     135D    272
     116     137       0       0       0       0       0       000000000D    273
     116       0      -1       1       0       0       0   POINT     136D    274
     116     138       0       0       0       0       0       000000000D    275
     116       0      -1       1       0       0       0   POINT     137D    276
     116     139       0       0       0       0       0       000000000D    277
     116       0      -1       1       0       0       0   POINT     138D    278
     116     140       0       0       0       0       0       000000000D    279
     116       0      -1       1       0       0       0   POINT     139D    280
     116     141       0       0       0       0       0       000000000D    281
     116       0      -1       1       0       0       0   POINT     140D    282
     116     142       0       0       0       0       0       000000000D    283
     116       0      -1       1       0       0       0   POINT     141D    284
     116     143       0       0       0       0       0       000000000D    285
     116       0      -1       1       0       0       0   POINT     142D    286
     116     144       0       0       0       0       0       000000000D    287
     116       0      -1       1       0       0       0   POINT     143D    288
     116     145       0       0       0       0       0       000000000D    289
     116       0      -1       1       0       0       0   POINT     144D    290
     116     146       0       0       0       0       0       000000000D    291
     116       0      -1       1       0       0       0   POINT     145D    292
     116     147       0       0       0       0       0       000000000D    293
     116       0      -1       1       0       0       0   POINT     146D    294
     116     148       0       0       0       0       0       000000000D    295
     116       0      -1       1       0       0       0   POINT     147D    296
     116     149       0       0       0       0       0       000000000D    297
     116       0      -1       1       0       0       0   POINT     148D    298
     116     150       0       0       0       0       0       000000000D    299
     116       0      -1       1       0       0       0   POINT     149D    300
     116     151       0       0       0       0       0       000000000D    301
     116       0      -1       1       0       0       0   POINT     150D    302
     116     152       0       0       0       0       0       000000000D    303
     116       0      -1       1       0       0       0   POINT     151D    304
     116     153       0       0       0       0       0       000000000D    305
     116       0      -1       1       0       0       0   POINT     152D    306
     116     154       0       0       0       0       0       000000000D    307
     116       0      -1       1       0       0       0   POINT     153D    308
     116     155       0       0       0       0       0       000000000D    309
     116       0      -1       1       0       0       0   POINT     154D    310
     116     156       0       0       0       0       0       000000000D    311
     116       0      -1       1       0       0       0   POINT     155D    312
     116     157       0       0       0       0       0       000000000D    313
     116       0      -1       1       0       0       0   POINT     156D    314
     116     158       0       0       0       0       0       000000000D    315
     116       0      -1       1       0       0       0   POINT     157D    316
     116     159       0       0       0       0       0       000000000D    317
     116       0      -1       1       0       0       0   POINT     158D    318
     116     160       0       0       0       0       0       000000000D    319
     116       0      -1       1       0       0       0   POINT     159D    320
     116     161       0       0       0       0       0       000000000D    321
     116       0      -1       1       0       0       0   POINT     160D    322
     116     162       0       0       0       0       0       000000000D    323
     116       0      -1       1       0       0       0   POINT     161D    324
     116     163       0       0       0       0       0       000000000D    325
     116       0      -1       1       0       0       0   POINT     162D    326
     116     164       0       0       0       0       0       000000000D    327
     116       0      -1       1       0       0       0   POINT     163D    328
     116     165       0       0       0       0       0       000000000D    329
     116       0      -1       1       0       0       0   POINT     164D    330
     116     166       0       0       0       0       0       000000000D    331
     116       0      -1       1       0       0       0   POINT     165D    332
     126     167       0       0       0       0       0       000000000D    333
     126       0      -1      39       0       0       0   CURVE       1D    334
     110     206       0       0       0       0       0       000000000D    335
     110       0      -1       1       0       0       0    LINE       1D    336
     110     207       0       0       0       0       0       000000000D    337
     110       0      -1       1       0       0       0    LINE       2D    338
     110     208       0       0       0       0       0       000000000D    339
     110       0      -1       1       0       0       0    LINE       3D    340
     110     209       0       0       0       0       0       000000000D    341
     110       0      -1       1       0       0       0    LINE       4D    342
     110     210       0       0       0       0       0       000000000D    343
     110       0      -1       1       0       0       0    LINE       5D    344
     126     211       0       0       0       0       0       000000000D    345
     126       0      -1       4       0       0       0   CURVE       2D    346
     126     215       0       0       0       0       0       000000000D    347
     126       0      -1      40       0       0       0   CURVE       3D    348
     126     255       0       0       0       0       0       000000000D    349
     126       0      -1      17       0       0       0   CURVE       4D    350
     126     272       0       0       0       0       0       000000000D    351
     126       0      -1      15       0       0       0   CURVE       5D    352
314,100,100,0,5HCOLOR;                                                 1P      1
116,0.01051215,0.002860699,0.00000;                                    3P      2
116,0.00932375,0.001767428,0.00000;                                    5P      3
116,0.006948207,-0.000419039,0.00000;                                  7P      4
116,0.0045719,-0.002605302,0.00000;                                    9P      5
116,0.002196357,-0.004791769,0.00000;                                 11P      6
116,-0.001314905,-0.008164981,0.00000;                                13P      7
116,-0.004679404,-0.0116851,0.00000;                                  15P      8
116,-0.007888709,-0.01534662,0.00000;                                 17P      9
116,-0.01093091,-0.01914782,0.00000;                                  19P     10
116,-0.01378971,-0.02308898,0.00000;                                  21P     11
116,-0.01644063,-0.02717338,0.00000;                                  23P     12
116,-0.01884761,-0.03140536,0.00000;                                  25P     13
116,-0.02055341,-0.0348815,0.00000;                                   27P     14
116,-0.02187758,-0.03804633,0.00000;                                  29P     15
116,-0.02337231,-0.0426782,0.00000;                                   31P     16
116,-0.02424595,-0.0474638,0.00000;                                   33P     17
116,-0.02416471,-0.05232078,0.00000;                                  35P     18
116,-0.02256852,-0.05688704,0.00000;                                  37P     19
116,-0.01856244,-0.05994322,0.00000;                                  39P     20
116,-0.01603943,-0.06033455,0.00000;                                  41P     21
116,-0.01477564,-0.06012626,0.00000;                                  43P     22
116,-0.01462616,-0.06038516,0.00000;                                  45P     23
116,-0.02248052,-0.06257828,0.00000;                                  47P     24
116,-0.0286047,-0.06386216,0.00000;                                   49P     25
116,-0.03391321,-0.06446219,0.00000;                                  51P     26
116,-0.03839032,-0.06436541,0.00000;                                  53P     27
116,-0.04203022,-0.06355168,0.00000;                                  55P     28
116,-0.0447876,-0.06207938,0.00000;                                   57P     29
116,-0.04665582,-0.05994661,0.00000;                                  59P     30
116,-0.04759809,-0.05721148,0.00000;                                  61P     31
116,-0.04752937,-0.05402687,0.00000;                                  63P     32
116,-0.04645073,-0.05040437,0.00000;                                  65P     33
116,-0.04435048,-0.04638432,0.00000;                                  67P     34
116,-0.04124475,-0.04196894,0.00000;                                  69P     35
116,-0.0371521,-0.03716637,0.00000;                                   71P     36
116,-0.02614195,-0.02635746,0.00000;                                  73P     37
116,-0.01159859,-0.01394677,0.00000;                                  75P     38
116,-0.003086826,-0.007173541,0.00000;                                77P     39
116,0.006204386,-5.16052e-05,0.00000;                                 79P     40
116,0.01038614,0.003078953,0.00000;                                   81P     41
116,0.4883316,0.01712018,0.00000;                                     83P     42
116,0.47498,0.0179386,0.00000;                                        85P     43
116,0.39116,0.0179386,0.00000;                                        87P     44
116,0.39116,-0.009624771,0.00000;                                     89P     45
116,0.379984,-0.01170239,0.00000;                                     91P     46
116,0.3657357,-0.01434998,0.00000;                                    93P     47
116,0.36322,-0.01479758,0.00000;                                      95P     48
116,0.3488806,-0.01735689,0.00000;                                    97P     49
116,0.314415,-0.0227996,0.00000;                                      99P     50
116,0.2793978,-0.02689113,0.00000;                                   101P     51
116,0.2618542,-0.02833954,0.00000;                                   103P     52
116,0.2270438,-0.03007573,0.00000;                                   105P     53
116,0.1930598,-0.03047583,0.00000;                                   107P     54
116,0.176545,-0.03027243,0.00000;                                    109P     55
116,0.1447974,-0.02924871,0.00000;                                   111P     56
116,0.1151726,-0.02752872,0.00000;                                   113P     57
116,0.08813729,-0.02525608,0.00000;                                  115P     58
116,0.0659384,-0.02284933,0.00000;                                   117P     59
116,0.05859577,-0.02181108,0.00000;                                  119P     60
116,0.050292,-0.0206024,0.00000;                                     121P     61
116,0.0448275,-0.01973067,0.00000;                                   123P     62
116,0.03915512,-0.01874886,0.00000;                                  125P     63
116,0.0334995,-0.01767149,0.00000;                                   127P     64
116,0.03112628,-0.01718478,0.00000;                                  129P     65
116,0.02965608,-0.01677462,0.00000;                                  131P     66
116,0.02783886,-0.01569893,0.00000;                                  133P     67
116,0.02524435,-0.01239586,0.00000;                                  135P     68
116,0.02448215,-0.009333078,0.00000;                                 137P     69
116,0.02555001,-0.003871366,0.00000;                                 139P     70
116,0.02844739,0.00090805,0.00000;                                   141P     71
116,0.03233105,0.004942586,0.00000;                                  143P     72
116,0.03723005,0.008716162,0.00000;                                  145P     73
116,0.0414909,0.0113794,0.00000;                                     147P     74
116,0.04643907,0.01401415,0.00000;                                   149P     75
116,0.05153198,0.01635664,0.00000;                                   151P     76
116,0.05673161,0.01845325,0.00000;                                   153P     77
116,0.06201227,0.02033697,0.00000;                                   155P     78
116,0.06735608,0.02203237,0.00000;                                   157P     79
116,0.07275129,0.02355733,0.00000;                                   159P     80
116,0.07818786,0.02492751,0.00000;                                   161P     81
116,0.08411058,0.02620493,0.00000;                                   163P     82
116,0.09055689,0.02712583,0.00000;                                   165P     83
116,0.09795373,0.02787294,0.00000;                                   167P     84
116,0.1159756,0.02947502,0.00000;                                    169P     85
116,0.1447974,0.0314895,0.00000;                                     171P     86
116,0.1600202,0.03233776,0.00000;                                    173P     87
116,0.176545,0.03307537,0.00000;                                     175P     88
116,0.1930593,0.03367161,0.00000;                                    177P     89
116,0.2270438,0.03443326,0.00000;                                    179P     90
116,0.2618542,0.03457743,0.00000;                                    181P     91
116,0.2793978,0.03440643,0.00000;                                    183P     92
116,0.314415,0.03357103,0.00000;                                     185P     93
116,0.3488806,0.03208685,0.00000;                                    187P     94
116,0.36322,0.03126877,0.00000;                                      189P     95
116,0.3657357,0.03110393,0.00000;                                    191P     96
116,0.385572,0.02971706,0.00000;                                     193P     97
116,0.39116,0.02928336,0.00000;                                      195P     98
116,0.4042437,0.02816557,0.00000;                                    197P     99
116,0.40513,0.02808529,0.00000;                                      199P    100
116,0.4191,0.02673914,0.00000;                                       201P    101
116,0.43307,0.02523373,0.00000;                                      203P    102
116,0.44704,0.02355789,0.00000;                                      205P    103
116,0.46101,0.02169597,0.00000;                                      207P    104
116,0.47498,0.019634,0.00000;                                        209P    105
116,0.4884454,0.01729318,0.00000;                                    211P    106
116,0.6302237,-0.08158414,0.00000;                                   213P    107
116,0.6295816,-0.08103949,0.00000;                                   215P    108
116,0.6280788,-0.07976409,0.00000;                                   217P    109
116,0.6254578,-0.07754416,0.00000;                                   219P    110
116,0.621828,-0.07454612,0.00000;                                    221P    111
116,0.6171779,-0.07091673,0.00000;                                   223P    112
116,0.6115694,-0.06673856,0.00000;                                   225P    113
116,0.6050825,-0.06210096,0.00000;                                   227P    114
116,0.5977763,-0.05715665,0.00000;                                   229P    115
116,0.589708,-0.0520893,0.00000;                                     231P    116
116,0.5809763,-0.04703632,0.00000;                                   233P    117
116,0.5717406,-0.04205551,0.00000;                                   235P    118
116,0.5621642,-0.03720941,0.00000;                                   237P    119
116,0.5524022,-0.03258094,0.00000;                                   239P    120
116,0.5426257,-0.02822887,0.00000;                                   241P    121
116,0.5330184,-0.02418665,0.00000;                                   243P    122
116,0.5237615,-0.02048219,0.00000;                                   245P    123
116,0.5150278,-0.01714317,0.00000;                                   247P    124
116,0.5069796,-0.01419322,0.00000;                                   249P    125
116,0.4998496,-0.01151696,0.00000;                                   251P    126
116,0.4942064,-0.008424358,0.00000;                                  253P    127
116,0.4903294,-0.004661603,0.00000;                                  255P    128
116,0.4879233,-0.000875226,0.00000;                                  257P    129
116,0.4869346,0.002722052,0.00000;                                   259P    130
116,0.4869871,0.004446138,0.00000;                                   261P    131
116,0.4873977,0.006100434,0.00000;                                   263P    132
116,0.4881425,0.007641138,0.00000;                                   265P    133
116,0.4891843,0.009007615,0.00000;                                   267P    134
116,0.4904899,0.01014614,0.00000;                                    269P    135
116,0.49204,0.01102985,0.00000;                                      271P    136
116,0.4938293,0.01165628,0.00000;                                    273P    137
116,0.4958567,0.01203365,0.00000;                                    275P    138
116,0.4981191,0.0121691,0.00000;                                     277P    139
116,0.5006103,0.01206712,0.00000;                                    279P    140
116,0.5033227,0.01173179,0.00000;                                    281P    141
116,0.506248,0.01116966,0.00000;                                     283P    142
116,0.5093777,0.0103885,0.00000;                                     285P    143
116,0.512701,0.009394805,0.00000;                                    287P    144
116,0.5162036,0.008191892,0.00000;                                   289P    145
116,0.519869,0.006780709,0.00000;                                    291P    146
116,0.5236795,0.005163358,0.00000;                                   293P    147
116,0.5276191,0.00334574,0.00000;                                    295P    148
116,0.5358235,-0.000854536,0.00000;                                  297P    149
116,0.5443515,-0.005745111,0.00000;                                  299P    150
116,0.5530639,-0.01124389,0.00000;                                   301P    151
116,0.5618177,-0.01726013,0.00000;                                   303P    152
116,0.5704609,-0.02370901,0.00000;                                   305P    153
116,0.5789138,-0.03038344,0.00000;                                   307P    154
116,0.5871305,-0.03702261,0.00000;                                   309P    155
116,0.5949468,-0.04356468,0.00000;                                   311P    156
116,0.6022232,-0.04992084,0.00000;                                   313P    157
116,0.6088485,-0.05597283,0.00000;                                   315P    158
116,0.6147265,-0.06160135,0.00000;                                   317P    159
116,0.6198023,-0.06664655,0.00000;                                   319P    160
116,0.6240576,-0.0709187,0.00000;                                    321P    161
116,0.6274411,-0.07431621,0.00000;                                   323P    162
116,0.629906,-0.0767967,0.00000;                                     325P    163
116,0.630761,-0.07765684,0.00000;                                    327P    164
116,0.6313117,-0.07821055,0.00000;                                   329P    165
116,0.631856,-0.07875699,0.00000;                                    331P    166
126,61,3,0,0,0,0,0,0,0,0,0.0008419528,0.002813043,0.006247849,       333P    167
0.01095567,0.01685449,0.0238482,0.03182237,0.04064429,               333P    168
0.05017194,0.0602603,0.07075344,0.08148625,0.0922899,0.1029913,      333P    169
0.1134144,0.123385,0.1327352,0.141307,0.1489227,0.1553578,           333P    170
0.1607605,0.1652467,0.1689774,0.1707022,0.1724067,0.174118,          333P    171
0.1758364,0.1775687,0.1793529,0.1812487,0.183311,0.1855774,          333P    172
0.1880707,0.1908038,0.1937826,0.1970083,0.200477,0.2041804,          333P    173
0.208108,0.2122476,0.2165862,0.2258033,0.2356341,0.2459366,          333P    174
0.2565586,0.2673425,0.2781128,0.2886765,0.2988693,0.308531,          333P    175
0.3175043,0.3256425,0.3327992,0.3388291,0.343624,0.3471209,          333P    176
0.3483337,0.3491146,0.3498859,0.3498859,0.3498859,0.3498859,1,1,     333P    177
1,1,1,1,1,1,1,1,1,1,1,1,1,1,1,1,1,1,1,1,1,1,1,1,1,1,1,1,1,1,1,1,     333P    178
1,1,1,1,1,1,1,1,1,1,1,1,1,1,1,1,1,1,1,1,1,1,1,1,1,1,1,1,             333P    179
0.6302237,-0.08158414,0,0.6300097,-0.08140259,0,0.6292946,           333P    180
-0.08079603,0,0.6277066,-0.07944857,0,0.625138,-0.07726516,0,        333P    181
0.6215372,-0.07427423,0,0.6169003,-0.07067853,0,0.6113187,           333P    182
-0.06652777,0,0.6048711,-0.06191026,0,0.5976091,-0.05698277,0,       333P    183
0.5895798,-0.0519396,0,0.5808825,-0.04692709,0,0.5716905,            333P    184
-0.04197889,0,0.5621636,-0.03715688,0,0.5524512,-0.03255582,0,       333P    185
0.5427251,-0.02823261,0,0.5331691,-0.02421688,0,0.5239633,           333P    186
-0.02053309,0,0.5152773,-0.01721918,0,0.5072872,-0.01427132,0,       333P    187
0.5001668,-0.01182075,0,0.4943001,-0.008884523,0,0.4903924,          333P    188
-0.005000441,0,0.4878536,-0.001202598,0,0.486855,0.002043328,0,      333P    189
0.4869248,0.004447969,0,0.4873427,0.00612298,0,0.488095,             333P    190
0.007673138,0,0.4891445,0.009051158,0,0.4904698,0.01020504,0,        333P    191
0.4920512,0.01109711,0,0.4938709,0.01171921,0,0.4959196,             333P    192
0.01208578,0,0.4981949,0.01220904,0,0.5006932,0.0120956,0,           333P    193
0.5034088,0.01174986,0,0.5063345,0.01117901,0,0.5094626,             333P    194
0.0103913,0,0.5127828,0.009393462,0,0.5162818,0.008188104,0,         333P    195
0.519943,0.006775282,0,0.5237491,0.005156373,0,0.5291037,            333P    196
0.002680889,0,0.5360389,-0.0008873827,0,0.5445228,-0.005765737,      333P    197
0,0.5531889,-0.01124771,0,0.5619047,-0.01723159,0,0.57049,           333P    198
-0.02366459,0,0.5788652,-0.03033408,0,0.587056,-0.03691832,0,        333P    199
0.5948351,-0.04342286,0,0.6020745,-0.04974283,0,0.6086689,           333P    200
-0.05575732,0,0.6145119,-0.061353,0,0.6195392,-0.06637847,0,         333P    201
0.6237664,-0.07062773,0,0.627137,-0.07400845,0,0.6293692,            333P    202
-0.07625679,0,0.6306595,-0.07755475,0,0.6313093,-0.07820835,0,       333P    203
0.6316745,-0.07857488,0,0.631856,-0.07875699,0,0,0.3498859,          333P    204
0.0,0.0,0.0;                                                         333P    205
110,0.631856,-0.07875699,0,0.6302237,-0.08158414,0.00000;            335P    206
110,0.4883316,0.01712018,0,0.4884454,0.01729318,0.00000;             337P    207
110,0.01038614,0.003078953,0,0.01051215,0.002860699,0.00000;         339P    208
110,-0.01462616,-0.06038516,0,-0.01477564,-0.06012626,0.00000;       341P    209
110,0.39116,-0.009624771,0,0.39116,0.0179386,0.00000;                343P    210
126,4,3,0,0,0,0,0,0,0,0,0.01337669,0.09719669,0.09719669,            345P    211
0.09719669,0.09719669,1,1,1,1,1,0.4883316,0.01712018,0,              345P    212
0.4838817,0.01741176,0,0.4515476,0.01953041,0,0.4191226,             345P    213
0.01867569,0,0.39116,0.0179386,0,0,0.09719669,0.0,0.0,0.0;           345P    214
126,63,3,0,0,0,0,0,0,0,0,0.01366735,0.02778871,0.04188224,           347P    215
0.0559524,0.07000327,0.08403798,0.08492795,0.09805927,0.1036641,     347P    216
0.1235488,0.1260699,0.1404326,0.1749302,0.2099574,0.2275017,         347P    217
0.2623125,0.2963055,0.3128305,0.3293718,0.3446182,0.3735103,         347P    218
0.3916033,0.3990377,0.4055495,0.4116084,0.417215,0.4228216,          347P    219
0.4284279,0.4340345,0.4396409,0.4452467,0.4508526,0.4558773,         347P    220
0.4620612,0.4676612,0.4732502,0.4788154,0.4819716,0.4861718,         347P    221
0.4882835,0.4898098,0.4922325,0.4979898,0.5037465,0.5092801,         347P    222
0.5176714,0.525087,0.547416,0.5745467,0.6042214,0.6359855,           347P    223
0.6525015,0.6864879,0.7213416,0.7389448,0.7742002,0.809093,          347P    224
0.823659,0.8262142,0.8407064,0.8520739,0.8520739,0.8520739,          347P    225
0.8520739,1,1,1,1,1,1,1,1,1,1,1,1,1,1,1,1,1,1,1,1,1,1,1,1,1,1,1,     347P    226
1,1,1,1,1,1,1,1,1,1,1,1,1,1,1,1,1,1,1,1,1,1,1,1,1,1,1,1,1,1,1,1,     347P    227
1,1,1,1,1,0.4884454,0.01729318,0,0.4839613,0.01810023,0,             347P    228
0.4748441,0.01974114,0,0.4610215,0.02171372,0,0.4470522,             347P    229
0.02359122,0,0.4330794,0.02525986,0,0.4191081,0.02676516,0,          347P    230
0.4094937,0.02769019,0,0.4001799,0.02853369,0,0.3936617,             347P    231
0.0290944,0,0.3808265,0.03008837,0,0.371511,0.03072301,0,            347P    232
0.3592815,0.03153005,0,0.3421798,0.03247174,0,0.3142426,             347P    233
0.03369406,0,0.2852255,0.03437618,0,0.2560992,0.0346612,0,           347P    234
0.227315,0.03453961,0,0.1988773,0.03390975,0,0.1765389,              347P    235
0.03309461,0,0.1604495,0.03239366,0,0.140255,0.03125164,0,           347P    236
0.1195564,0.02985638,0,0.10149,0.02820978,0,0.09085887,              347P    237
0.02720453,0,0.08424198,0.02632572,0,0.07832873,0.02498349,0,        347P    238
0.0727444,0.02358416,0,0.06734771,0.02206051,0,0.06200176,           347P    239
0.02036815,0,0.05671839,0.01848854,0,0.05151481,0.0163974,0,         347P    240
0.0464156,0.01406226,0,0.04162852,0.01152906,0,0.0368629,            347P    241
0.008570198,0,0.03238712,0.005179473,0,0.02829316,0.00103722,0,      347P    242
0.02528239,-0.003714029,0,0.02410028,-0.008541534,0,0.02514645,      347P    243
-0.01282378,0,0.02718854,-0.01538871,0,0.02943963,-0.01679543,0,     347P    244
0.03141917,-0.01726076,0,0.03458696,-0.01788803,0,0.0391523,         347P    245
-0.01876865,0,0.04475223,-0.01972844,0,0.05123058,-0.02076725,0,     347P    246
0.05827482,-0.02175751,0,0.07085373,-0.02359816,0,0.08972867,        347P    247
-0.02545023,0,0.1160073,-0.02773052,0,0.145488,-0.02940442,0,        347P    248
0.1714619,-0.03024559,0,0.1988826,-0.03059124,0,0.2273386,           347P    249
-0.03028613,0,0.2561279,-0.02887722,0,0.2852686,-0.02647602,0,       347P    250
0.314329,-0.02305385,0,0.3422204,-0.01860215,0,0.3592775,            347P    251
-0.01549463,0,0.3696541,-0.01365828,0,0.3789582,-0.01188277,0,       347P    252
0.3874341,-0.01031426,0,0.39116,-0.009624771,0,0,0.8520739,          347P    253
0.0,0.0,0.0;                                                         347P    254
126,22,3,0,0,0,0,0,0,0,0,0.001280846,0.003834024,0.008872768,        349P    255
0.01370997,0.01856763,0.02343232,0.0282994,0.03173008,0.0356022,     349P    256
0.0404708,0.04534005,0.05020888,0.05507756,0.05994648,               349P    257
0.06481589,0.06968492,0.07291352,0.07614254,0.07937114,              349P    258
0.08098593,0.08098593,0.08098593,0.08098593,1,1,1,1,1,1,1,1,1,1,     349P    259
1,1,1,1,1,1,1,1,1,1,1,1,1,-0.01477564,-0.06012626,0,-0.01519558,     349P    260
-0.06021456,0,-0.01645263,-0.06047888,0,-0.01944376,-0.05991663,     349P    261
0,-0.0230056,-0.05723402,0,-0.02439187,-0.05231471,0,                349P    262
-0.02440306,-0.04744892,0,-0.0234699,-0.04264845,0,-0.02209894,      349P    263
-0.03847427,0,-0.02052549,-0.03473243,0,-0.01873166,-0.03109089,     349P    264
0,-0.01648059,-0.02714855,0,-0.01382423,-0.02306533,0,               349P    265
-0.01096121,-0.01912471,0,-0.007916584,-0.01532308,0,                349P    266
-0.004704275,-0.0116622,0,-0.001342007,-0.008137948,0,               349P    267
0.001786582,-0.005153898,0,0.004573486,-0.002606839,0,               349P    268
0.006947871,-0.0004188764,0,0.008927822,0.001403259,0,               349P    269
0.01011601,0.002496284,0,0.01051215,0.002860699,0,0,0.08098593,      349P    270
0.0,0.0,0.0;                                                         349P    271
126,20,3,0,0,0,0,0,0,0,0,0.005223737,0.01693051,0.02780832,          351P    272
0.04692728,0.06235634,0.06866622,0.07406446,0.07860008,              351P    273
0.08237977,0.08556512,0.088458,0.09129331,0.09441914,0.09814889,     351P    274
0.102627,0.1079694,0.1142267,0.1223815,0.1223815,0.1223815,          351P    275
0.1223815,1,1,1,1,1,1,1,1,1,1,1,1,1,1,1,1,1,1,1,1,1,0.01038614,      351P    276
0.003078953,0,0.008990871,0.002037232,0,0.004468715,                 351P    277
-0.001339062,0,-0.002889118,-0.006977697,0,-0.01377486,              351P    278
-0.01562459,0,-0.02534309,-0.02539923,0,-0.03520426,-0.0348252,      351P    279
0,-0.04112667,-0.04167401,0,-0.04428539,-0.04608339,0,               351P    280
-0.04647221,-0.05011807,0,-0.04764594,-0.05379871,0,-0.04780025,     351P    281
-0.05713602,0,-0.04683587,-0.06002788,0,-0.04482455,-0.0622947,      351P    282
0,-0.04188338,-0.063763,0,-0.0381538,-0.0645274,0,-0.03361686,       351P    283
-0.0645497,0,-0.0282888,-0.0638984,0,-0.02184411,-0.06250966,0,      351P    284
-0.01723445,-0.06115287,0,-0.01462616,-0.06038516,0,0,0.1223815,     351P    285
0.0,0.0,0.0;                                                         351P    286
S      2G      4D    352P    286                                        T      1
